/* XPM */
static char *Rond_bleu[] = {
/* columns rows colors chars-per-pixel */
"36 36 227 2 ",
"   c #1D639E",
".  c #1C649F",
"X  c #256591",
"o  c #22659A",
"O  c #21639D",
"+  c #2A659D",
"@  c #366A92",
"#  c #346897",
"$  c #306A9C",
"%  c #316A9F",
"&  c #0E61AF",
"*  c #1161A0",
"=  c #1465A7",
"-  c #1D63A1",
";  c #1268A5",
":  c #1D6AA2",
">  c #1A68A6",
",  c #196BA7",
"<  c #1F69A6",
"1  c #1E68A7",
"2  c #1E6AA6",
"3  c #1267AA",
"4  c #1763AE",
"5  c #1064AC",
"6  c #1266AC",
"7  c #1466AF",
"8  c #1B66AA",
"9  c #1C67AB",
"0  c #1867AC",
"q  c #1468A8",
"w  c #156AAB",
"e  c #176BAB",
"r  c #166CA9",
"t  c #126BAD",
"y  c #1269AE",
"u  c #1469AC",
"i  c #1568AE",
"p  c #1669AF",
"a  c #156DAD",
"s  c #176CAF",
"d  c #1968AB",
"f  c #1A69AB",
"g  c #1B69AB",
"h  c #1F69A8",
"j  c #1E6AA8",
"k  c #1E69AA",
"l  c #1E6CAA",
"z  c #186BAD",
"x  c #1B6AAD",
"c  c #1A6BAD",
"v  c #186BAF",
"b  c #1A6AAF",
"n  c #1C6AAC",
"m  c #1D6BAD",
"M  c #1C6BAE",
"N  c #1A6DAF",
"B  c #196EAF",
"V  c #1A6EAE",
"C  c #1D6CAE",
"Z  c #1D6CAF",
"A  c #1E6CAE",
"S  c #1F6DAF",
"D  c #1D71AF",
"F  c #0F6AB0",
"G  c #0C68B5",
"H  c #0F69B7",
"J  c #0D6FBA",
"K  c #1367B0",
"L  c #1567B0",
"P  c #1864B0",
"I  c #1967B1",
"U  c #1D65B1",
"Y  c #1169B3",
"T  c #1369B2",
"R  c #1468B0",
"E  c #1569B1",
"W  c #176AB0",
"Q  c #1569B2",
"!  c #1769B2",
"~  c #146AB3",
"^  c #156CB1",
"/  c #166FB1",
"(  c #166DB2",
")  c #126AB4",
"_  c #176AB6",
"`  c #116CB5",
"'  c #126DB6",
"]  c #156DB5",
"[  c #166EB5",
"{  c #176EB5",
"}  c #146CB6",
"|  c #156DB7",
" . c #166EB6",
".. c #176FB7",
"X. c #1969B0",
"o. c #1B6BB0",
"O. c #1C69B1",
"+. c #1D6AB0",
"@. c #1E6BB1",
"#. c #1D6BB3",
"$. c #186DB0",
"%. c #1B6EB0",
"&. c #186CB2",
"*. c #196CB2",
"=. c #1A6DB3",
"-. c #186FB2",
";. c #1B6EB2",
":. c #1C6CB1",
">. c #1F6CB0",
",. c #1E6DB0",
"<. c #1D6EB0",
"1. c #1F6EB1",
"2. c #1E6FB1",
"3. c #1D6DB2",
"4. c #1E6DB2",
"5. c #1E6EB3",
"6. c #1B6BB4",
"7. c #1B6AB5",
"8. c #186CB4",
"9. c #196DB5",
"0. c #1B6EB4",
"q. c #196DB6",
"w. c #1B6DB6",
"e. c #1A6EB7",
"r. c #1D6DB4",
"t. c #1C6FB5",
"y. c #1D6DB6",
"u. c #1F6DB7",
"i. c #1F6FB6",
"p. c #126CB8",
"a. c #136DB9",
"s. c #176DB8",
"d. c #146FB8",
"f. c #166EB8",
"g. c #176FB9",
"h. c #156FBB",
"j. c #116CBF",
"k. c #176CBC",
"l. c #196FB8",
"z. c #1D6FB9",
"x. c #1571B4",
"c. c #1B70B1",
"v. c #1F70B1",
"b. c #1F70B2",
"n. c #1D72B3",
"m. c #1E77B3",
"M. c #1E71B5",
"N. c #1D71B7",
"B. c #1E71B7",
"V. c #1572B8",
"C. c #1672BB",
"Z. c #1771BD",
"A. c #1670BE",
"S. c #1274BF",
"D. c #1A70B9",
"F. c #1971BB",
"G. c #1A70BB",
"H. c #1C70B9",
"J. c #1970BD",
"K. c #1973BF",
"L. c #1A75BE",
"P. c #2067A5",
"I. c #2767A4",
"U. c #2268A3",
"Y. c #206BA4",
"T. c #206AA7",
"R. c #2468A5",
"E. c #256BA7",
"W. c #246FA6",
"Q. c #296BA7",
"!. c #2D6BA6",
"~. c #2168A8",
"^. c #206AA9",
"/. c #216BAA",
"(. c #256BA9",
"). c #246BAB",
"_. c #206BAC",
"`. c #226CAD",
"'. c #216FAD",
"]. c #226DAE",
"[. c #256CAC",
"{. c #2C6EA8",
"}. c #2B6FAE",
"|. c #306BA3",
" X c #316DAB",
".X c #2974AD",
"XX c #3971A2",
"oX c #3D74AC",
"OX c #3E78A8",
"+X c #206EB0",
"@X c #236EB1",
"#X c #246FB0",
"$X c #2469B6",
"%X c #206DB5",
"&X c #216EB4",
"*X c #206FB4",
"=X c #216EB6",
"-X c #216EBC",
";X c #2170B2",
":X c #2371B3",
">X c #2273B2",
",X c #2073B5",
"<X c #2374B5",
"1X c #2576B7",
"2X c #2171B8",
"3X c #2373BA",
"4X c #2076BF",
"5X c #2478BE",
"6X c #3878B5",
"7X c #3171B8",
"8X c #3270B9",
"9X c #497097",
"0X c #1772C1",
"qX c #1572C2",
"wX c #1774C1",
"eX c #1874C1",
"rX c #2172C1",
"tX c #2F7CC0",
"yX c #3878C0",
"uX c #5287A7",
"iX c #6794BB",
"pX c #6293BC",
"aX c #5E91C0",
"sX c #5694CD",
"dX c #6C9CC2",
"fX c #6E9EC4",
"gX c None",
/* pixels */
"gXgXgXgXgXgXgXgXgXgXgXgXgXgXgXgXgXgXgXgXgXgXgXgXgXgXgXgXgXgXgXgXgXgXgXgX",
"gXgXgXgXgXgXgXgXgXgXgXgXgXgXgXgXgXgXgXgXgXgXgXgXgXgXgXgXgXgXgXgXgXgXgXgX",
"gXgXgXgXgXgXgXgXgXgXgXgXgXgXgXgXgXgXgXgXgXgXgXgXgXgXgXgXgXgXgXgXgXgXgXgX",
"gXgXgXgXgXgXgXgXgXgXgXgXgXgXgXgXgXgXgXgXgXgXgXgXgXgXgXgXgXgXgXgXgXgXgXgX",
"gXgXgXgXgXgXgXgXgXgXgXgXgXgXgXgXgXgXgXgXgXgXgXgXgXgXgXgXgXgXgXgXgXgXgXgX",
"gXgXgXgXgXgXgXgXgXgXgXgXgXgXgXgXgXgXgXgXgXgXgXgXgXgXgXgXgXgXgXgXgXgXgXgX",
"gXgXgXgXgXgXgXgXgXgXgXgXgXgXgXgXgXgXgXgXgXgXgXgXgXgXgXgXgXgXgXgXgXgXgXgX",
"gXgXgXgXgXgXgXgXgXgXgXgXgXgXgXgXgXgXgXgXgXgXgXgXgXgXgXgXgXgXgXgXgXgXgXgX",
"gXgXgXgXgXgXgXgXgXgXgXgXgXgXgXsX8XyX7X XaXgXgXgXgXgXgXgXgXgXgXgXgXgXgXgX",
"gXgXgXgXgXgXgXgXgXgXgXgXgX9X% [.8 0 M.1X: X uXgXgXgXgXgXgXgXgXgXgXgXgXgX",
"gXgXgXgXgXgXgXgXgXgXgXpXE.3X5 r.>Xw F C.V.3 > .XfXgXgXgXgXgXgXgXgXgXgXgX",
"gXgXgXgXgXgXgXgXgXgXiXj G qXA.q.T.:XB._ k.rX-XP * dXgXgXgXgXgXgXgXgXgXgX",
"gXgXgXgXgXgXgXgXgXgX  a.f.4.4.7 2 l +X4.I 4 U $XJ o gXgXgXgXgXgXgXgXgXgX",
"gXgXgXgXgXgXgXgXgX@ N.wXx Q.- 2Xm.r ; V <X;XS S S.v.# gXgXgXgXgXgXgXgXgX",
"gXgXgXgXgXgXgXgXgXU.6 D.M h tXQ t -.c.e q z s u y  .k gXgXgXgXgXgXgXgXgX",
"gXgXgXgXgXgXgXgX5XM.<.2.i 4XY J.7.u.%X@.O.6.e.G.'.d.A.oXgXgXgXgXgXgXgXgX",
"gXgXgXgXgXgXgXgX^.m 3.B.b d +XS :.:.:.:.:.:.:.:.$.o.D + gXgXgXgXgXgXgXgX",
"gXgXgXgXgXgXgXgXM *.E 0.1.g C c :.:.:.:.:.:.:.:.;.X.B !.gXgXgXgXgXgXgXgX",
"gXgXgXgXgXgXgXgX9.F.Y p :Xk Z &.:.:.:.:.:.:.:.:.%.W / }.gXgXgXgXgXgXgXgX",
"gXgXgXgXgXgXgXgX8.L.h.R #X1 ,.l.:.:.:.:.:.:.:.:.N =.x.(.gXgXgXgXgXgXgXgX",
"gXgXgXgXgXgXgXgX/.*.K.~ ].P.1.g.:.:.:.:.:.:.:.:.v i.a I.gXgXgXgXgXgXgXgX",
"gXgXgXgXgXgXgXgXgX. D.] +X< Z ' :.:.:.:.:.:.:.:.&.*X, gXgXgXgXgXgXgXgXgX",
"gXgXgXgXgXgXgXgXgX$ o.| 5.^.Z } :.:.:.:.:.:.:.:.{ >.W.gXgXgXgXgXgXgXgXgX",
"gXgXgXgXgXgXgXgXgXgXf ` t._.Z ..:.:.:.:.:.:.:.:.[ A gXgXgXgXgXgXgXgXgXgX",
"gXgXgXgXgXgXgXgXgXgXXX#.j.H ,XY.=X+.@X`.~.).1 ^.& OXgXgXgXgXgXgXgXgXgXgX",
"gXgXgXgXgXgXgXgXgXgXgX|.&XH.( n.9 +.y.K ) Z.a.p.6XgXgXgXgXgXgXgXgXgXgXgX",
"gXgXgXgXgXgXgXgXgXgXgXgXgXR.b.^ z.s.A.0XeXT = gXgXgXgXgXgXgXgXgXgXgXgXgX",
"gXgXgXgXgXgXgXgXgXgXgXgXgXgXgX{.L ! w.n O gXgXgXgXgXgXgXgXgXgXgXgXgXgXgX",
"gXgXgXgXgXgXgXgXgXgXgXgXgXgXgXgXgXgXgXgXgXgXgXgXgXgXgXgXgXgXgXgXgXgXgXgX",
"gXgXgXgXgXgXgXgXgXgXgXgXgXgXgXgXgXgXgXgXgXgXgXgXgXgXgXgXgXgXgXgXgXgXgXgX",
"gXgXgXgXgXgXgXgXgXgXgXgXgXgXgXgXgXgXgXgXgXgXgXgXgXgXgXgXgXgXgXgXgXgXgXgX",
"gXgXgXgXgXgXgXgXgXgXgXgXgXgXgXgXgXgXgXgXgXgXgXgXgXgXgXgXgXgXgXgXgXgXgXgX",
"gXgXgXgXgXgXgXgXgXgXgXgXgXgXgXgXgXgXgXgXgXgXgXgXgXgXgXgXgXgXgXgXgXgXgXgX",
"gXgXgXgXgXgXgXgXgXgXgXgXgXgXgXgXgXgXgXgXgXgXgXgXgXgXgXgXgXgXgXgXgXgXgXgX",
"gXgXgXgXgXgXgXgXgXgXgXgXgXgXgXgXgXgXgXgXgXgXgXgXgXgXgXgXgXgXgXgXgXgXgXgX",
"gXgXgXgXgXgXgXgXgXgXgXgXgXgXgXgXgXgXgXgXgXgXgXgXgXgXgXgXgXgXgXgXgXgXgXgX"
};
