/* XPM */
static char *fourmi[] = {
/* columns rows colors chars-per-pixel */
"45 45 2 1 ",
"  c #010101",
". c None",
/* pixels */
".............................................",
".............................................",
".............................................",
".............................................",
".............................................",
".............................................",
".............................................",
".............................................",
".............................................",
".............................................",
"..................................... .......",
".................................... ........",
"................................... .........",
".................................. ..........",
"................................. ...........",
"................................ ......   ...",
"...................... .....    ..... .......",
"................. ... . ...         .........",
"................ . .. .   .       ...........",
"................... .             ...........",
"............ .. ....              ...........",
"........... .  .              ...............",
".......... ...            .... ..............",
"......... ...        ...  .... ..............",
"........ ...         .... ..... .............",
"....... ...           ... ..... .............",
"...... ....         . ... ..... .............",
"..... .....        .. .... ..... ............",
".... .....        ... .... ..................",
"... .....       ..... ..... .................",
".. ................... ......................",
"...................... ......................",
"...................... ......................",
"...................... ......................",
"....................... .....................",
".............................................",
".............................................",
".............................................",
".............................................",
".............................................",
".............................................",
".............................................",
".............................................",
".............................................",
"............................................."
};
